<svg width="30" height="25" viewBox="0 0 30 25" fill="none" xmlns="http://www.w3.org/2000/svg">
<path d="M14.665 2.97111L14.605 2.92611L14.545 2.97111L5.61611 9.66778L5.57611 9.69778V9.74778V21.8656V21.9656H5.67611H10.7783H10.8783V21.8656V15.4878C10.8783 14.4994 11.271 13.5515 11.9698 12.8526C12.6687 12.1537 13.6166 11.7611 14.605 11.7611C15.5934 11.7611 16.5413 12.1537 17.2402 12.8526C17.939 13.5515 18.3317 14.4994 18.3317 15.4878V21.8656V21.9656H18.4317H23.5339H23.6339V21.8656V9.74778V9.69778L23.5939 9.66778L14.665 2.97111ZM13.1343 1.09022C13.5586 0.772014 14.0747 0.6 14.605 0.6C15.1353 0.6 15.6514 0.772014 16.0757 1.09022L25.0046 7.78689C25.309 8.0152 25.5561 8.31126 25.7262 8.65161C25.8964 8.99196 25.985 9.36725 25.985 9.74778V21.8656C25.985 22.5156 25.7268 23.1391 25.2671 23.5988C24.8074 24.0584 24.184 24.3167 23.5339 24.3167H17.2837C16.9381 24.3167 16.6066 24.1794 16.3622 23.935C16.1178 23.6906 15.9806 23.3592 15.9806 23.0136V15.4878C15.9806 15.123 15.8356 14.7731 15.5777 14.5151C15.3197 14.2571 14.9698 14.1122 14.605 14.1122C14.2402 14.1122 13.8903 14.2571 13.6323 14.5151C13.3744 14.7731 13.2294 15.123 13.2294 15.4878V23.0136C13.2294 23.1847 13.1957 23.3541 13.1302 23.5122C13.0648 23.6703 12.9688 23.814 12.8478 23.935C12.7268 24.056 12.5831 24.152 12.425 24.2175C12.2669 24.283 12.0975 24.3167 11.9263 24.3167H5.67611C5.02604 24.3167 4.40259 24.0584 3.94291 23.5988C3.48324 23.1391 3.225 22.5156 3.225 21.8656V9.74778C3.225 9.36725 3.3136 8.99196 3.48377 8.65161C3.65395 8.31126 3.90103 8.0152 4.20544 7.78689L13.1343 1.09022Z"  stroke="white" stroke-width="0.2"/>
</svg>
