<svg width="89" height="46" viewBox="0 0 89 46" fill="none" xmlns="http://www.w3.org/2000/svg">
<path d="M1.69946 20.9199V0.387722H3.47401V3.05474H3.52548C4.12518 2.09593 4.93249 1.31488 5.87517 0.781441C6.81785 0.248008 7.86653 -0.0211761 8.92743 -0.00203699C13.1389 -0.00203699 16.3836 3.52785 16.3836 7.9451C16.3836 12.4187 13.1881 15.9462 8.92743 15.9462C7.86955 15.9647 6.82372 15.6983 5.8818 15.1704C4.9399 14.6426 4.13075 13.8694 3.52548 12.9188H3.47401V20.9199H1.69946ZM8.90282 1.75065C5.91093 1.75065 3.37555 4.52798 3.37555 8.00148C3.37555 11.3916 5.78562 14.1984 8.92967 14.1984C12.2281 14.1984 14.6113 11.5019 14.6113 8.0309C14.6113 4.55985 12.2774 1.75065 8.90282 1.75065Z" fill="#EF7D00"/>
<path d="M19.1722 8.69516C19.3244 11.7225 21.8575 14.1959 24.5429 14.1959C26.6979 14.1959 28.7544 12.8354 29.5152 10.6121H31.3927C30.8339 12.3833 29.7195 13.8798 28.248 14.8352C26.7762 15.7906 25.0426 16.1429 23.3562 15.8292C21.6695 15.5156 20.1393 14.5564 19.0379 13.1224C17.9365 11.6885 17.3354 9.87294 17.3417 7.99899C17.3417 3.58664 20.6648 -0.0020752 24.5451 -0.0020752C28.7051 -0.0020752 31.8246 3.92001 31.8246 8.11175C31.8246 8.3054 31.8 8.50151 31.8 8.69516H19.1722ZM30.003 6.94493C29.4951 3.88815 27.2886 1.75061 24.5496 1.75061C21.9627 1.75061 19.6533 3.80725 19.1789 6.94493H30.003Z" fill="#EF7D00"/>
<path d="M43.9844 15.5859V7.11173C43.9844 3.6946 42.1069 1.75072 39.6722 1.75072C36.9869 1.75072 35.3355 4.00102 35.3355 6.97445V15.5883H33.5609V0.390246H35.3355V2.33413H35.3869C36.282 0.863348 37.8485 0.000488281 39.6387 0.000488281C43.4697 0.000488281 45.7522 2.89057 45.7522 7.10927V15.5834H43.9754L43.9844 15.5859Z" fill="#EF7D00"/>
<path d="M58.617 15.5859V7.11173C58.617 3.6946 56.7395 1.75072 54.3048 1.75072C51.6195 1.75072 49.968 4.00102 49.968 6.97445V15.5883H48.1935V0.390246H49.968V2.33413H50.0195C50.9146 0.863348 52.481 0.000488281 54.2712 0.000488281C58.1023 0.000488281 60.3848 2.89057 60.3848 7.10927V15.5834H58.608L58.617 15.5859Z" fill="#EF7D00"/>
<path d="M63.6855 20.92L66.0956 15.0858L60.6936 0.377991H62.5711L66.9839 12.4924L71.7011 0.377991H73.5786L65.5384 20.9102L63.6855 20.92Z" fill="#EF7D00"/>
<path d="M12.1766 40.5893V38.9224H12.1251C11.5165 40.2828 9.84263 41.1163 7.98977 41.1163C3.82977 41.1163 0.938599 37.5325 0.938599 32.8652C0.938599 28.3082 3.95733 24.6411 7.98977 24.6411C9.71508 24.6411 11.3128 25.3912 12.1251 26.808H12.1766V25.1681H16.3881V40.5893H12.1766ZM12.1766 32.8652C12.1766 31.8251 11.7994 30.8274 11.1279 30.0918C10.4565 29.3564 9.5458 28.9431 8.5962 28.9431C6.66949 28.9431 5.14558 30.6933 5.14558 32.9167C5.1524 33.9374 5.52911 34.9133 6.1928 35.6298C6.8565 36.3463 7.75281 36.7446 8.68459 36.737C9.61637 36.7297 10.5073 36.3169 11.1613 35.5898C11.8154 34.8628 12.179 33.881 12.1721 32.8603L12.1766 32.8652Z" fill="#EF7D00"/>
<path d="M18.5476 45.7295V25.168H22.504V26.8618H22.5801C23.699 25.3347 25.2431 24.6385 26.993 24.6385C31.0008 24.6385 33.8405 28.2223 33.8405 33.0293C33.8405 37.4196 31.0254 41.1186 26.993 41.1186C25.3438 41.1186 23.8982 40.5622 22.7568 39.2017V45.732H18.5476V45.7295ZM29.6313 32.8945C29.6206 32.1329 29.4049 31.3918 29.0108 30.7643C28.6167 30.1365 28.0622 29.6507 27.4168 29.3673C26.7715 29.0839 26.0639 29.016 25.3834 29.1717C24.7027 29.3276 24.0794 29.7004 23.5916 30.2432C23.1038 30.7859 22.7734 31.4747 22.6419 32.2226C22.5104 32.9705 22.5836 33.7444 22.8524 34.4467C23.1212 35.1492 23.5735 35.7488 24.1526 36.1707C24.7315 36.5923 25.4114 36.8171 26.1069 36.8166C26.5736 36.8141 27.0355 36.7104 27.4656 36.5116C27.8959 36.3128 28.286 36.0229 28.6136 35.6583C28.9412 35.2938 29.1997 34.8622 29.3742 34.3878C29.549 33.9135 29.6362 33.4058 29.6313 32.8945Z" fill="#EF7D00"/>
<path d="M35.2908 45.7295V25.168H39.2471V26.8618H39.3232C40.4421 25.3347 41.9861 24.6385 43.7361 24.6385C47.7439 24.6385 50.5836 28.2223 50.5836 33.0293C50.5836 37.4196 47.7685 41.1186 43.7361 41.1186C42.0868 41.1186 40.6413 40.5622 39.5 39.2017V45.732H35.2908V45.7295ZM46.3766 32.8945C46.3659 32.1329 46.1502 31.3918 45.7561 30.7643C45.362 30.1365 44.8075 29.6507 44.1621 29.3673C43.5168 29.0839 42.8092 29.016 42.1287 29.1717C41.448 29.3276 40.8248 29.7004 40.3369 30.2432C39.8491 30.7859 39.5188 31.4747 39.3872 32.2226C39.2556 32.9705 39.3288 33.7444 39.5978 34.4467C39.8665 35.1492 40.3188 35.7488 40.8979 36.1707C41.4768 36.5923 42.1569 36.8171 42.8522 36.8166C43.319 36.8141 43.7808 36.7104 44.2109 36.5116C44.6413 36.3128 45.0313 36.0229 45.3589 35.6583C45.6865 35.2938 45.945 34.8622 46.1195 34.3878C46.2943 33.9135 46.3816 33.4058 46.3766 32.8945Z" fill="#EF7D00"/>
<path d="M55.3857 34.282C55.6095 36.0323 56.9521 37.1991 58.6819 37.1991C59.8232 37.1991 60.5594 36.726 61.2442 35.7553H65.5563C64.2137 39.1185 61.6492 41.0893 58.6819 41.0893C57.7025 41.0901 56.7326 40.8792 55.8279 40.4689C54.9229 40.0588 54.1008 39.457 53.4082 38.6986C52.7156 37.9399 52.1665 37.0393 51.7921 36.048C51.4175 35.0567 51.225 33.9943 51.2257 32.9216C51.2257 28.4749 54.4727 24.6411 58.6103 24.6411C62.8218 24.6411 66.0419 28.2812 66.0419 33.0588C66.0473 33.4702 66.0135 33.881 65.9412 34.2845L55.3857 34.282ZM61.8282 31.1713C61.4993 29.5878 60.2305 28.5313 58.6058 28.5313C57.0842 28.5313 55.7661 29.5314 55.4349 31.1713H61.8282Z" fill="#EF7D00"/>
<path d="M77.9379 40.5893V38.9224H77.8931C77.2844 40.2828 75.6106 41.1163 73.7577 41.1163C69.5977 41.1163 66.7065 37.5325 66.7065 32.8652C66.7065 28.3082 69.7253 24.6411 73.7577 24.6411C75.483 24.6411 77.0808 25.3912 77.8931 26.808H77.9446V25.1681H82.1448V40.5893H77.9379ZM77.9379 32.8652C77.9379 31.8251 77.5606 30.8274 76.889 30.0918C76.2177 29.3564 75.3069 28.9431 74.3574 28.9431C72.4307 28.9431 70.9068 30.6933 70.9068 32.9167C70.9102 33.4221 71.0044 33.9217 71.1841 34.3872C71.3638 34.8527 71.6254 35.2751 71.9539 35.6298C72.2826 35.9845 72.6717 36.2649 73.0994 36.4549C73.5268 36.6449 73.9844 36.7407 74.4458 36.737C74.907 36.7333 75.3633 36.6301 75.7883 36.4333C76.2132 36.2365 76.5986 35.9499 76.9226 35.5898C77.2464 35.23 77.5024 34.8037 77.6758 34.3352C77.8492 33.8668 77.9367 33.3657 77.9334 32.8603L77.9379 32.8652Z" fill="#EF7D00"/>
<path d="M84.3066 40.5889V20.0273H88.5181V40.5889H84.3066Z" fill="#EF7D00"/>
</svg>
