<svg width="15" height="16" viewBox="0 0 15 16" fill="none" xmlns="http://www.w3.org/2000/svg">
<path d="M7.35352 15.1943C6.37826 15.1943 5.45996 15.0075 4.59863 14.6338C3.7373 14.2646 2.97852 13.752 2.32227 13.0957C1.66602 12.4395 1.15104 11.6829 0.777344 10.8262C0.408203 9.96484 0.223633 9.04427 0.223633 8.06445C0.223633 7.08919 0.408203 6.17318 0.777344 5.31641C1.15104 4.45508 1.66374 3.69629 2.31543 3.04004C2.97168 2.38379 3.73047 1.87109 4.5918 1.50195C5.45312 1.12826 6.37142 0.941406 7.34668 0.941406C8.32194 0.941406 9.24023 1.12826 10.1016 1.50195C10.9674 1.87109 11.7262 2.38379 12.3779 3.04004C13.0342 3.69629 13.5492 4.45508 13.9229 5.31641C14.2965 6.17318 14.4834 7.08919 14.4834 8.06445C14.4834 9.04427 14.2965 9.96484 13.9229 10.8262C13.5492 11.6829 13.0342 12.4395 12.3779 13.0957C11.7262 13.752 10.9697 14.2646 10.1084 14.6338C9.24707 15.0075 8.32878 15.1943 7.35352 15.1943ZM6.08203 11.9814H8.9668C9.13997 11.9814 9.28581 11.9268 9.4043 11.8174C9.52279 11.7035 9.58203 11.5576 9.58203 11.3799C9.58203 11.2204 9.52279 11.0837 9.4043 10.9697C9.28581 10.8512 9.13997 10.792 8.9668 10.792H8.24219V7.60645C8.24219 7.37402 8.18522 7.18945 8.07129 7.05273C7.96191 6.91146 7.79785 6.84082 7.5791 6.84082H6.21191C6.03874 6.84082 5.8929 6.89779 5.77441 7.01172C5.65592 7.12565 5.59668 7.26465 5.59668 7.42871C5.59668 7.60645 5.65592 7.75 5.77441 7.85938C5.8929 7.96875 6.03874 8.02344 6.21191 8.02344H6.90234V10.792H6.08203C5.90885 10.792 5.76302 10.8512 5.64453 10.9697C5.52604 11.0837 5.4668 11.2204 5.4668 11.3799C5.4668 11.5576 5.52604 11.7035 5.64453 11.8174C5.76302 11.9268 5.90885 11.9814 6.08203 11.9814ZM7.31934 5.78809C7.60189 5.78809 7.84115 5.6901 8.03711 5.49414C8.23307 5.29362 8.33105 5.05436 8.33105 4.77637C8.33105 4.48926 8.23307 4.24772 8.03711 4.05176C7.84115 3.85124 7.60189 3.75098 7.31934 3.75098C7.04134 3.75098 6.80208 3.85124 6.60156 4.05176C6.4056 4.24772 6.30762 4.48926 6.30762 4.77637C6.30762 5.05436 6.4056 5.29362 6.60156 5.49414C6.80208 5.6901 7.04134 5.78809 7.31934 5.78809Z" fill="white"/>
</svg>
