<svg width="20" height="30" viewBox="0 0 20 30" fill="none" xmlns="http://www.w3.org/2000/svg">
<path d="M8.79096 27.2766C8.68516 27.2958 8.57675 27.2958 8.47096 27.2766C8.24006 27.2069 8.03825 27.0636 7.89624 26.8687C7.75424 26.6737 7.67981 26.4377 7.68429 26.1966V26.0499L8.88429 17.5832H3.09762C2.90248 17.5834 2.71103 17.53 2.54411 17.429C2.3772 17.3279 2.24121 17.1829 2.15096 17.0099C2.04899 16.836 1.99524 16.6381 1.99524 16.4366C1.99524 16.235 2.04899 16.0371 2.15096 15.8632L4.81762 11.2099L10.2843 2.51657C10.4058 2.31145 10.5932 2.1536 10.8161 2.06884C11.0389 1.98407 11.2839 1.97739 11.511 2.0499C11.7419 2.1196 11.9437 2.26283 12.0857 2.45778C12.2277 2.65274 12.3021 2.88875 12.2976 3.1299V3.27657L11.0976 11.7432H16.8976C17.0928 11.7431 17.2842 11.7964 17.4511 11.8975C17.6181 11.9986 17.754 12.1435 17.8443 12.3166C17.9463 12.4904 18 12.6883 18 12.8899C18 13.0915 17.9463 13.2894 17.8443 13.4632L15.1776 18.1166L9.71096 26.8099C9.6105 26.9601 9.47311 27.0818 9.31199 27.1636C9.15088 27.2453 8.97145 27.2842 8.79096 27.2766ZM4.57762 15.5299H9.91096C10.058 15.5316 10.2033 15.5623 10.3386 15.6202C10.4738 15.6781 10.5963 15.7621 10.699 15.8673C10.8018 15.9726 10.8828 16.097 10.9375 16.2336C10.9922 16.3702 11.0194 16.5161 11.0176 16.6632V16.8099L10.231 22.3299L13.5643 16.9966L15.4843 13.6899H10.151C10.0039 13.6882 9.85857 13.6575 9.72335 13.5996C9.58813 13.5417 9.46564 13.4577 9.36288 13.3525C9.26011 13.2472 9.17908 13.1228 9.12442 12.9862C9.06976 12.8496 9.04253 12.7036 9.04429 12.5566V12.4099L9.83096 6.8899L6.49762 12.2232L4.57762 15.5299Z" fill="#EF7D00"/>
</svg>
