<svg width="28" height="25" viewBox="0 0 28 25" fill="none" xmlns="http://www.w3.org/2000/svg">
<path d="M2 7.33333V18C2 18.7072 2.28095 19.3855 2.78105 19.8856C3.28115 20.3857 3.95942 20.6667 4.66667 20.6667H12.6667M2 7.33333V4.66667C2 3.95942 2.28095 3.28115 2.78105 2.78105C3.28115 2.28095 3.95942 2 4.66667 2H23.3333C24.0406 2 24.7189 2.28095 25.219 2.78105C25.719 3.28115 26 3.95942 26 4.66667V7.33333M2 7.33333H26M26 7.33333V11.3333M7.33333 12.6667H14M22 15.3333V19.3333M22 19.3333V23.3333M22 19.3333H18M22 19.3333H26" stroke="#EF7D00" stroke-width="2.66667" stroke-linecap="round" stroke-linejoin="round"/>
</svg>
