<svg width="33" height="32" viewBox="0 0 33 32" fill="none" xmlns="http://www.w3.org/2000/svg">
<g clip-path="url(#clip0_529_3800)">
<path d="M23.8038 20.1258H22.3584L21.8461 19.6318C23.7011 17.4802 24.7206 14.7333 24.7186 11.8925C24.7186 9.5404 24.0211 7.2411 22.7144 5.28539C21.4076 3.32968 19.5502 1.80538 17.3772 0.905269C15.2041 0.00515284 12.8129 -0.230358 10.506 0.228517C8.19907 0.687392 6.08003 1.82004 4.41683 3.48324C2.75364 5.14644 1.62099 7.26548 1.16211 9.5724C0.703235 11.8793 0.938747 14.2705 1.83886 16.4436C2.73898 18.6166 4.26327 20.474 6.21898 21.7808C8.1747 23.0875 10.474 23.785 12.8261 23.785C15.7718 23.785 18.4796 22.7055 20.5654 20.9125L21.0594 21.4248V22.8702L30.2075 32L32.9336 29.2739L23.8038 20.1258ZM12.8261 20.1258C8.27036 20.1258 4.59283 16.4483 4.59283 11.8925C4.59283 7.33677 8.27036 3.65924 12.8261 3.65924C17.3819 3.65924 21.0594 7.33677 21.0594 11.8925C21.0594 16.4483 17.3819 20.1258 12.8261 20.1258Z" fill="white"/>
</g>
<defs>
<clipPath id="clip0_529_3800">
<rect width="32" height="32" fill="white" transform="translate(0.933594)"/>
</clipPath>
</defs>
</svg>
