<svg width="16" height="17" viewBox="0 0 16 17" fill="none" xmlns="http://www.w3.org/2000/svg">
<path d="M7 14.3324C7 14.3324 6 14.3324 6 13.3324C6 12.3324 7 9.3324 11 9.3324C15 9.3324 16 12.3324 16 13.3324C16 14.3324 15 14.3324 15 14.3324H7ZM11 8.3324C11.7956 8.3324 12.5587 8.01633 13.1213 7.45372C13.6839 6.89111 14 6.12805 14 5.3324C14 4.53675 13.6839 3.77369 13.1213 3.21108C12.5587 2.64847 11.7956 2.3324 11 2.3324C10.2044 2.3324 9.44129 2.64847 8.87868 3.21108C8.31607 3.77369 8 4.53675 8 5.3324C8 6.12805 8.31607 6.89111 8.87868 7.45372C9.44129 8.01633 10.2044 8.3324 11 8.3324ZM5.216 14.3324C5.06776 14.0202 4.99382 13.6779 5 13.3324C5 11.9774 5.68 10.5824 6.936 9.6124C6.30909 9.41923 5.65595 9.32477 5 9.3324C1 9.3324 0 12.3324 0 13.3324C0 14.3324 1 14.3324 1 14.3324H5.216ZM4.5 8.3324C5.16304 8.3324 5.79893 8.06901 6.26777 7.60016C6.73661 7.13132 7 6.49544 7 5.8324C7 5.16936 6.73661 4.53347 6.26777 4.06463C5.79893 3.59579 5.16304 3.3324 4.5 3.3324C3.83696 3.3324 3.20107 3.59579 2.73223 4.06463C2.26339 4.53347 2 5.16936 2 5.8324C2 6.49544 2.26339 7.13132 2.73223 7.60016C3.20107 8.06901 3.83696 8.3324 4.5 8.3324Z" fill="#5A606D"/>
</svg>
